<?xml version="1.0" encoding="utf-8"?>
<!-- Generator: Adobe Illustrator 25.2.3, SVG Export Plug-In . SVG Version: 6.00 Build 0)  -->
<svg version="1.1" id="Capa_1" xmlns="http://www.w3.org/2000/svg" xmlns:xlink="http://www.w3.org/1999/xlink" x="0px" y="0px"
	 viewBox="0 0 512 512" style="enable-background:new 0 0 512 512;" xml:space="preserve">
<style type="text/css">
	.st0{fill:#662D91;}
	.st1{fill:#FFFFFF;}
</style>
<g>
	<g>
		<circle class="st0" cx="256" cy="256" r="256"/>
	</g>
</g>
<path class="st1" d="M475.89,229.36c-4.49,11.38-14.09,11.93-24.43,10.98c-1.6,9.12-3.42,17.76-4.59,26.5
	c-3.29,24.64-20.98,40.96-45.42,45.2c-25.12,4.36-50.29,5.55-75.61,3.2c-9.59-0.89-19.45-1.05-28.22-6.15
	c-11.31-6.59-16.68-16.79-18.37-29.41c-1.04-7.8-2.2-15.58-3.63-23.31c-0.29-1.56-1.73-3.43-3.15-4.17
	c-10.89-5.62-21.97-5.65-32.82,0c-1.63,0.85-2.95,3.4-3.33,5.38c-1.88,9.68-2.98,19.53-5.13,29.14
	c-3.26,14.6-15.74,25.07-30.42,26.99c-22.36,2.92-44.78,3.8-67.2,1.54c-13.31-1.34-26.81-2.48-39.22-8.19
	c-16.47-7.57-25.76-20.75-28.91-38.44c-1.63-9.14-3.1-18.32-4.75-28.13c-2.92,0-5.87,0.04-8.82-0.01
	c-9.63-0.15-15.67-6.3-15.71-15.99c-0.02-4.88-0.08-9.75,0.03-14.63c0.17-7.59,5.85-13.51,13.44-14.12
	c1.71-0.14,3.43-0.16,5.15-0.16c35.5,0.08,71-0.28,106.49,0.44c18.54,0.38,37.25,1.47,55.49,4.55c10.54,1.78,20.87,2.28,31.37,2.44
	c9.44,0.14,18.9,0.28,28.34-0.07c5.33-0.2,10.61-1.49,15.92-2.14c9.35-1.14,18.69-2.45,28.08-3.18c46.3-3.6,92.69-1.43,139.04-2.11
	c8.09-0.12,12.94,3.97,16.4,10.61C475.89,213.87,475.89,221.62,475.89,229.36z M144.96,218.13c-15.75,1.05-30.66,1.91-45.54,3.08
	c-8.22,0.64-12.48,6.2-11.21,14.26c1.49,9.49,3.22,18.94,4.78,28.42c2.31,13.99,10.63,22.27,24.25,25.19
	c6.43,1.38,12.97,2.43,19.51,3.08c17.7,1.74,35.38,1.31,53-1.24c7.56-1.1,13.48-6.08,14.79-13.58c2.38-13.57,4.31-27.22,6.58-40.81
	c1.31-7.86-2.91-14.04-10.82-14.64C181.61,220.48,162.9,219.33,144.96,218.13z M368.01,218.11c-18.39,1.21-37.22,2.4-56.04,3.73
	c-7.36,0.52-12.36,6.2-11.35,13.03c2.12,14.2,4.36,28.38,6.84,42.52c1.28,7.32,7.2,12.44,14.51,13.48
	c24.04,3.43,47.98,3.1,71.86-1.48c13.07-2.51,22.44-11.04,24.86-23.51c1.94-10,3.51-20.07,5.06-30.14
	c1.27-8.27-2.74-13.8-10.9-14.49C398.11,220.01,383.32,219.16,368.01,218.11z M240.4,235.96c10.4-3.16,21.04-3,31.2-0.07
	c0.32-6.24,0.62-12.12,0.92-17.96c-10.97,0-22.25,0-32.97,0C239.84,224.06,240.11,229.82,240.4,235.96z M50.93,210.3
	c0,5.33,0,10.37,0,15.49c2.71,0,5.09,0,7.19,0c1.84-5.26,3.59-10.28,5.41-15.49C59.55,210.3,55.46,210.3,50.93,210.3z
	 M461.27,210.39c-4.58,0-8.75,0-12.51,0c1.42,4.76,2.73,9.35,4.22,13.88c0.23,0.7,1.29,1.52,2.03,1.6c2.04,0.22,4.12,0.08,6.25,0.08
	C461.27,220.45,461.27,215.62,461.27,210.39z"/>
</svg>
