<?xml version="1.0" encoding="utf-8"?>
<!-- Generator: Adobe Illustrator 25.2.3, SVG Export Plug-In . SVG Version: 6.00 Build 0)  -->
<svg version="1.1" id="Capa_1" xmlns="http://www.w3.org/2000/svg" xmlns:xlink="http://www.w3.org/1999/xlink" x="0px" y="0px"
	 viewBox="0 0 512 512" style="enable-background:new 0 0 512 512;" xml:space="preserve">
<style type="text/css">
	.st0{fill:#662D91;}
	.st1{fill:#FFFFFF;}
</style>
<g>
	<g>
		<circle class="st0" cx="256" cy="256" r="256"/>
	</g>
</g>
<g>
	<path class="st1" d="M59.88,187.28c2.34-4.79,6.42-7.07,11.36-8.71c58.2-19.27,116.36-38.65,174.5-58.1c4-1.34,7.63-1.34,11.6-0.01
		c58.71,19.62,117.46,39.16,176.2,58.69c4.81,1.6,8.55,4.25,9.45,9.53c0.75,4.39-0.67,8.21-4.31,10.87
		c-1.57,1.15-3.48,1.94-5.35,2.57c-58.56,19.54-117.15,39.02-175.7,58.6c-4.24,1.42-8.09,1.38-12.32-0.04
		c-58.58-19.6-117.18-39.12-175.81-58.55c-4.45-1.48-7.42-4.22-9.62-8.11C59.88,191.77,59.88,189.52,59.88,187.28z"/>
	<path class="st1" d="M371.16,237.97c0,9.37,0,18.21,0,27.06c0,15.71-0.07,31.42,0.04,47.14c0.04,4.95-1.7,8.78-5.28,12.21
		c-23.85,22.83-51.82,38.01-84.36,43.48c-55.77,9.38-104.52-5.48-145.47-44.74c-2.2-2.11-4-5.82-4.04-8.81
		c-0.31-25.06-0.16-50.12-0.14-75.19c0-0.23,0.15-0.45,0.37-1.06c8.68,2.89,17.37,5.77,26.05,8.66
		c27.22,9.08,54.43,18.16,81.65,27.24c7.43,2.48,14.87,2.66,22.35,0.17c34.9-11.62,69.82-23.21,104.73-34.81
		C368.22,238.94,369.38,238.56,371.16,237.97z"/>
	<path class="st1" d="M419.08,221.99c0,39.93,0,79.34,0,117.53c5.73,4.5,11.24,7.96,15.63,12.5c5.91,6.1,8.43,13.94,8.42,22.53
		c-0.04,19.71,0,39.42-0.01,59.13c0,7.78-4.52,12.4-12.19,12.42c-15.47,0.03-30.94,0.03-46.4,0c-7-0.02-11.88-4.31-11.92-11.15
		c-0.13-20.83-0.39-41.67,0.18-62.49c0.39-14.07,8.11-24.02,20.72-29.99c2.41-1.14,3.17-2.34,3.17-4.92
		c-0.08-34.8-0.02-69.61-0.12-104.41c-0.01-2.82,0.71-4.11,3.53-4.92C406.38,226.41,412.55,224.17,419.08,221.99z"/>
</g>
</svg>
