<?xml version="1.0" encoding="utf-8"?>
<!-- Generator: Adobe Illustrator 25.2.3, SVG Export Plug-In . SVG Version: 6.00 Build 0)  -->
<svg version="1.1" id="Capa_1" xmlns="http://www.w3.org/2000/svg" xmlns:xlink="http://www.w3.org/1999/xlink" x="0px" y="0px"
	 viewBox="0 0 512 512" style="enable-background:new 0 0 512 512;" xml:space="preserve">
<style type="text/css">
	.st0{fill:#662D91;}
	.st1{fill:#FFFFFF;}
</style>
<g>
	<g>
		<circle class="st0" cx="256" cy="256" r="256"/>
	</g>
</g>
<g>
	<path class="st1" d="M415.25,340.82c-1.9,5.52-4.34,10.64-9.01,14.49c-3.72,3.07-8.04,4.49-12.59,5.65
		c-38.14,9.65-76.25,19.4-114.4,29.01c-11.27,2.84-18.77-3.12-18.8-14.79c-0.06-27.26-0.02-54.51-0.02-81.77
		c0-30.88,0.03-61.77-0.05-92.65c-0.01-2.38,0.58-3.34,3.02-3.94c44.52-10.93,89.01-22,133.53-32.98
		c8.85-2.18,13.67,0.63,18.33,10.27C415.25,229.68,415.25,285.25,415.25,340.82z M300.68,349.8c1.54-0.18,2.76-0.24,3.94-0.48
		c6.57-1.36,13.17-2.6,19.69-4.18c14.62-3.55,28.98-7.98,41.32-16.95c12.09-8.78,20.05-20.25,20.52-35.79
		c0.4-13.25-6.09-21.51-18.79-24.15c-1.91-0.4-3.89-0.46-6.07-0.7c0.4-0.6,0.48-0.82,0.63-0.93c0.91-0.68,1.86-1.32,2.75-2.01
		c10.65-8.28,17.97-18.36,16.97-32.64c-0.55-7.85-4.31-13.63-11.83-16.73c-7.26-2.99-14.73-3.07-22.27-1.71
		c-15.1,2.72-29.63,7.37-43.81,13.19c-2.44,1-3.11,2.27-3.11,4.79c0.08,38.23,0.05,76.46,0.05,114.7
		C300.68,347.33,300.68,348.44,300.68,349.8z"/>
	<path class="st1" d="M251.57,288.26c0,28.81,0.02,57.63-0.01,86.44c-0.01,5.72-1.27,10.93-6.65,14.15
		c-3.71,2.22-7.68,2.25-11.7,1.23c-28.43-7.19-56.86-14.41-85.29-21.63c-10.71-2.72-21.44-5.38-32.12-8.21
		c-11.96-3.17-19.04-12.46-19.04-24.71c-0.01-52.34-0.01-104.69,0-157.03c0-7.65,3.36-13.1,9.57-14.56
		c2.81-0.66,6.04-0.69,8.84-0.01c44.54,10.9,89.03,21.98,133.56,32.92c2.3,0.57,2.9,1.47,2.89,3.72
		C251.55,229.81,251.57,259.03,251.57,288.26z M160.28,214.95c-12.51,35.68-24.93,71.08-37.43,106.72
		c6.61,1.76,12.91,3.33,19.13,5.17c2.29,0.68,3.08,0.01,3.73-2.09c2.08-6.7,4.33-13.36,6.54-20.02c0.83-2.51,1.73-4.99,2.64-7.59
		c12.09,3.23,23.86,6.33,35.59,9.61c0.87,0.24,1.71,1.65,2.02,2.69c3.13,10.27,6.2,20.56,9.13,30.89c0.55,1.94,1.39,2.93,3.35,3.42
		c6.02,1.48,11.99,3.14,17.98,4.71c0.62,0.16,1.27,0.21,2.12,0.34c-0.23-0.93-0.34-1.54-0.52-2.12
		c-3.6-12.07-7.21-24.14-10.81-36.21c-8.53-28.59-17.04-57.19-25.65-85.75c-0.34-1.13-1.5-2.53-2.56-2.84
		C177.31,219.47,169.02,217.31,160.28,214.95z"/>
	<path class="st1" d="M255.84,121.26c12.95-0.05,25.27,3.44,37.73,5.89c31.72,6.23,63.41,12.65,95.11,19.01
		c1.72,0.34,3.51,0.62,5.08,1.34c1.41,0.64,2.55,1.86,3.81,2.82c-1.17,1.05-2.18,2.6-3.56,3.06c-4.4,1.47-8.91,2.63-13.42,3.76
		c-41.06,10.3-82.13,20.58-123.21,30.81c-1.33,0.33-2.89,0.34-4.22,0.01c-42.68-10.65-85.35-21.34-128.01-32.08
		c-2.19-0.55-4.35-1.33-6.4-2.29c-0.9-0.42-2.14-1.66-2.03-2.32c0.16-0.97,1.27-2.26,2.22-2.53c4.95-1.42,9.96-2.71,15-3.77
		c34.06-7.19,68.11-14.4,102.22-21.37C242.62,122.28,249.28,122.01,255.84,121.26z M324.62,141.47c-1.78-0.71-2.99-1.26-4.25-1.69
		c-15.76-5.38-32.05-8.34-48.61-9.1c-12.48-0.57-25.04-0.15-37.53,0.56c-11.7,0.66-23.2,3.08-33.91,8.04
		c-4.91,2.27-9.71,5.17-13.83,8.65c-4.95,4.18-4.46,9.42,0.65,13.44c2.33,1.83,4.95,3.47,7.69,4.6
		c17.89,7.37,36.84,9.78,55.87,12.01c5.37,0.63,8.1-2.23,11.22-5.87c-0.73-0.19-1.19-0.36-1.66-0.41
		c-5.75-0.66-11.52-1.16-17.25-1.99c-9.52-1.39-18.99-3.08-27.6-7.74c-6.73-3.64-7.05-8.67-0.86-13.15c0.33-0.24,0.7-0.45,1.04-0.67
		c10.89-7.18,23.24-9.76,35.89-10.54c19.39-1.2,38.42,1.03,56.73,7.96c0.73,0.28,1.65,0.54,2.34,0.34
		C315.08,144.55,319.56,143.08,324.62,141.47z"/>
	<path class="st1" d="M322.91,328.03c0-1.5,0-2.61,0-3.71c0-11.08,0.08-22.17-0.06-33.25c-0.04-2.71,0.54-4.09,3.47-4.59
		c5.78-1,11.44-2.77,17.24-3.53c3.38-0.44,7.06-0.02,10.38,0.86c5.92,1.58,9.08,7.46,8.71,14.12c-0.56,9.93-5.73,16.8-13.91,21.74
		C340.94,324.39,332.29,326.52,322.91,328.03z"/>
	<path class="st1" d="M323.16,271.63c-0.12-1.63-0.24-2.53-0.24-3.43c-0.01-9.52,0.04-19.05-0.05-28.57
		c-0.02-1.93,0.51-3.03,2.41-3.68c7.33-2.49,14.6-5.34,22.53-4.76c8.18,0.6,12.35,6.02,11.24,14.16
		c-1.25,9.21-6.91,15.24-14.88,18.85C337.56,267.19,330.45,269.1,323.16,271.63z"/>
	<path class="st1" d="M158.53,282.15c4.94-15.71,9.76-31.05,14.51-46.18c4.93,17.61,9.94,35.52,15.13,54.06
		C178.15,287.36,168.38,284.77,158.53,282.15z"/>
</g>
</svg>
