<?xml version="1.0" encoding="utf-8"?>
<!-- Generator: Adobe Illustrator 25.2.3, SVG Export Plug-In . SVG Version: 6.00 Build 0)  -->
<svg version="1.1" id="Capa_1" xmlns="http://www.w3.org/2000/svg" xmlns:xlink="http://www.w3.org/1999/xlink" x="0px" y="0px"
	 viewBox="0 0 512 512" style="enable-background:new 0 0 512 512;" xml:space="preserve">
<style type="text/css">
	.st0{fill:#662D91;}
	.st1{fill:#FFFFFF;}
</style>
<g>
	<g>
		<circle class="st0" cx="256" cy="256" r="256"/>
	</g>
</g>
<g>
	<path class="st1" d="M395.82,149.8c-21.88-19.72-47.37-27.24-75.74-22.36c-17.03,2.93-32.24,11.45-49.29,27.65
		c-8.15,7.73-10.84,14.14-9.3,22.11c0.07,0.35,0.05,0.65,0.04,0.81l-0.02,0.63c-0.07,2.63,0.08,3.36,1.31,3.83
		c1.96,0.76,3.73,0.34,5.57-1.32c0.84-0.75,1.68-1.51,2.54-2.25c5.13-4.45,11.46-6.46,17.81-5.67c6.3,0.79,11.87,4.25,15.68,9.74
		c8.25,11.88,8.07,32.47-0.39,44.06c-5.42,7.42-12.89,10.43-22.2,8.94c-5.83-0.94-9.99-4.34-12.96-7.19c-2.18-2.1-4-2.62-6.08-1.73
		c-1.28,0.54-1.39,1.21-1.29,3.61c0.02,0.45,0.04,0.89,0.03,1.33c-0.02,3.72-0.01,7.43,0,11.15c0.01,7.21,0.03,14.67-0.13,22.01
		c-0.03,1.34,0.18,1.64,0.19,1.65c0.01,0,0.31,0.2,1.59,0.18c6.03-0.06,12.26-0.08,18.63-0.08c5.32,0,10.73,0.02,16.21,0.06
		c8.83,0.06,12.38,4.88,13.79,8.91c1.95,5.54-0.07,13.12-4.51,16.9c-3.33,2.84-4.94,6.79-4.42,10.84s3.15,7.58,7.03,9.46
		c7.16,3.46,14.89,4.05,22.98,1.74c5.94-1.7,9.86-4.87,11.05-8.94c1.2-4.11-0.43-8.94-4.58-13.62c-4.96-5.59-5.99-11.88-2.97-18.18
		s8.99-7.11,13.85-7.11l31.85-0.03c3.01,0,6.02-0.01,9.03-0.02c7.91-0.02,16.09-0.05,24.14,0.1c1.92,0.04,2.45-0.33,3.09-2.18
		c2.83-8.15,4.99-15.04,6.35-22.19C431.93,204.81,422.21,173.57,395.82,149.8z"/>
	<path class="st1" d="M373.04,277.74l-7.75-0.01c-1.45,0-2.9-0.01-4.35-0.02c-3.77-0.02-7.67-0.05-11.49,0.07
		c-2.42,0.08-3.16,0.4-3.61,1.58c-0.6,1.57-0.33,2.98,0.91,4.71c0.44,0.61,0.99,1.21,1.56,1.83c0.45,0.49,0.92,0.99,1.36,1.54
		c4.74,5.84,6.64,13.03,5.2,19.74c-1.41,6.6-5.77,12.05-12.28,15.33c-12.51,6.31-25.71,6.27-38.19-0.13
		c-6.47-3.32-10.89-9.09-12.14-15.83c-1.29-7.01,0.92-14.32,6.08-20.05c0.19-0.21,0.38-0.42,0.57-0.63c0.8-0.87,1.56-1.7,2.05-2.56
		c0.86-1.53,1.02-2.99,0.44-4c-0.56-0.97-1.78-1.51-3.43-1.52c-5.67-0.05-11.45-0.02-17.04,0c-5.92,0.03-12.04,0.05-18.07-0.01
		c-0.85-0.01-1.19,0.09-1.3,0.14c-0.05,0.12-0.15,0.5-0.13,1.55c0.17,12.21,0.14,24.16,0.08,35.26c-0.02,4.45-1.48,8.13-4.22,10.66
		c-2.8,2.58-6.7,3.76-11.31,3.41c-4.79-0.36-8.21-3.12-11.04-5.68c-3.51-3.18-7.52-4.5-11.27-3.72c-3.62,0.76-6.64,3.43-8.49,7.54
		c-4.04,8.95-3.96,17.9,0.24,26.6c1.87,3.87,4.85,6.39,8.39,7.09c3.68,0.72,7.57-0.55,10.95-3.59c0.2-0.18,0.39-0.36,0.59-0.54
		c0.44-0.4,0.88-0.81,1.34-1.19c3.39-2.84,7.01-4.27,10.71-4.27c2.23,0,4.48,0.52,6.73,1.56c6.71,3.11,7.46,9.57,7.44,14.16
		c-0.06,14.01-0.05,28.25-0.04,42.03c0,5.27,0.01,10.55,0.01,15.82v0.94c35.85-23.32,63.88-44.75,88.17-67.4
		c26.97-25.15,45.76-48.38,59.15-73.09c1.16-2.13,2.28-4.28,3.43-6.48c0.15-0.28,0.29-0.56,0.44-0.85
		c-0.33,0.03-0.66,0.06-0.98,0.04C398.86,277.76,385.95,277.75,373.04,277.74z"/>
	<path class="st1" d="M143.66,266.56c1.82,0,3.63-0.01,5.44-0.02c4.35-0.03,8.85-0.06,13.3,0.09c2.83,0.09,3.74-0.8,4.23-2.49
		c-0.36-2.41-1.86-4.27-3.58-6.42c-0.34-0.42-0.68-0.85-1.01-1.28c-3.84-4.28-5.74-9.86-5.35-15.72c0.4-6.01,3.28-11.69,7.89-15.58
		c11.92-10.06,35.38-10.14,47.36-0.17c4.73,3.94,7.62,9.43,8.11,15.45c0.5,6.06-1.46,11.99-5.53,16.7c-0.39,0.46-0.81,0.9-1.23,1.34
		c-1.15,1.22-2.15,2.28-2.61,3.62c-0.44,1.27-0.36,2.46,0.22,3.28c0.54,0.76,1.46,1.16,2.67,1.17c5.6,0.04,11.3,0.03,16.81,0.03
		c6.31,0,12.82-0.01,19.24,0.05c0.42,0.01,0.66-0.03,0.8-0.05c0.03-0.15,0.06-0.45,0.06-0.99c-0.05-6.12-0.05-12.34-0.04-18.36
		c0-5.39,0.01-10.96-0.03-16.44c-0.04-6.79,2.39-11.27,7.44-13.71c5.62-2.72,11.24-2.01,16.71,2.11c0.67,0.5,1.26,1.04,1.83,1.57
		l0.52,0.47c3.67,3.29,7.75,4.65,11.5,3.82c3.67-0.81,6.73-3.68,8.63-8.09c3.53-8.22,3.55-16.58,0.05-24.85
		c-1.86-4.4-4.92-7.28-8.61-8.1c-3.77-0.84-7.85,0.51-11.5,3.8c-3.22,2.9-7.28,5.84-12.98,5.69c-7.6-0.2-13.15-5.55-13.49-13
		c-0.18-3.99-0.18-8-0.01-11.92c0.1-2.16-0.36-3.76-1.49-5.19l-1.35-1.62l-14.44-14.3l-0.46-0.38l-14.66-10.21
		c-8.42-4.37-19.68-9.5-32.26-10.61c-20.4-1.8-41.16,3.38-58.45,14.6c-17.31,11.23-30.52,28.11-37.19,47.52
		c-8.21,23.9-6.76,49.47,4.44,78.13l36.96,0.24c3.83-0.78,7.6-0.51,11.25-0.25L143.66,266.56z"/>
	<path class="st1" d="M250.59,363.9c-0.96-1.33-1.93-2.06-2.9-2.18c-1.55-0.19-3.38,1.16-4.64,2.33c-3.56,3.31-8.58,7.13-15.78,7.33
		c-10.53,0.3-18.54-4.98-22.58-14.87c-4.53-11.09-4.58-22.2-0.15-33.04c3.19-7.8,9.13-13.23,16.3-14.88
		c7.25-1.67,15.09,0.64,21.5,6.35c0.97,0.87,2.07,1.85,3.18,2.36c1.44,0.66,2.71,0.72,3.57,0.17c0.87-0.55,1.35-1.74,1.36-3.34
		c0.03-5.52,0.03-11.05,0.04-16.57c0-6.21,0.01-12.42,0.05-18.63c0-0.31,0.01-1.09-0.07-1.43c-0.13-0.03-0.39-0.08-0.84-0.07
		c-5.45,0.07-10.99,0.06-16.34,0.05c-6.02-0.01-12.25-0.02-18.36,0.09c-4.6,0.08-10.3-0.59-13.6-6.6c-2.94-5.36-2.6-11.04,1-16.42
		c0.76-1.13,1.65-2.1,2.52-3.03c0.4-0.43,0.8-0.86,1.17-1.3c2.51-2.93,3.61-6.59,3.01-10.04c-0.56-3.23-2.54-5.96-5.58-7.69
		c-9.8-5.59-20.13-5.63-29.89-0.13c-3.23,1.82-5.16,4.19-5.74,7.04c-0.74,3.61,0.7,7.93,4.15,12.49c6.34,5.32,7.42,13.27,2.73,20.32
		c-3.92,5.43-9.39,5.43-14.22,5.44c-0.93,0-1.81,0-2.68,0.04c-3.75,0.16-7.53-0.01-11.19-0.17c-1.52-0.07-3.05-0.14-4.57-0.18
		c-3.46,0.66-6.98,0.67-10.47,0.01l-4.83-0.06c-2.51,0.02-5.06,0.05-7.61,0.08c-6.43,0.08-13.08,0.16-19.63,0.09
		c-0.08,0-0.15,0-0.22,0c0.02,0.04,0.05,0.09,0.07,0.13c0.99,1.8,1.95,3.63,2.89,5.41c1.42,2.71,2.89,5.51,4.45,8.16
		c16.24,27.48,38.24,52.41,71.33,80.82c21.1,18.12,43.39,33.9,62.42,46.95l0.15,0.11l1.4,1.03l2.57,1.61
		c1.99,1.25,4.04,2.53,6.07,3.77l-0.01-4.3L250.59,363.9z"/>
</g>
</svg>
