<?xml version="1.0" encoding="utf-8"?>
<!-- Generator: Adobe Illustrator 25.2.3, SVG Export Plug-In . SVG Version: 6.00 Build 0)  -->
<svg version="1.1" id="Capa_1" xmlns="http://www.w3.org/2000/svg" xmlns:xlink="http://www.w3.org/1999/xlink" x="0px" y="0px"
	 viewBox="0 0 512 512" style="enable-background:new 0 0 512 512;" xml:space="preserve">
<style type="text/css">
	.st0{fill:#662D91;}
	.st1{fill:#FFFFFF;}
</style>
<g>
	<g>
		<circle class="st0" cx="256" cy="256" r="256"/>
	</g>
</g>
<g>
	<path class="st1" d="M432.43,291.15c2.56-4.95,3.7-10.64,5.48-15.99c0-17.48,0-34.95,0-52.43c-0.2-0.56-0.51-1.1-0.57-1.67
		c-2.35-21.86-10.28-41.48-23.98-58.64c-19.86-24.86-45.32-46.39-77.2-43.75c-46.02,3.81-83.05,37.1-105.76,51.35
		c-56.62,35.53-71.92,42.67-138.15,72.48c-10.16,4.57-17.03,13.69-21.49,24.01c-2.32,5.36-3.76,11.1-5.61,16.66
		c0,4.13,0,8.25,0,12.38c1.66,3.63,3.31,7.26,4.92,10.78l-3,10.19c-0.64,1.01-1.28,2.03-1.92,3.05c0,2.43,0,4.85,0,7.28
		c3.4,9.75,10.47,13.13,20.5,13.11c96.07-0.15,192.13-0.09,288.2-0.09c1.46,0,2.91-0.05,4.37-0.05
		C410.82,339.83,429.26,297.27,432.43,291.15z M352.78,316.52h-241.6c-2.81,0-5.1-2.28-5.1-5.1s2.28-5.1,5.1-5.1h241.61
		c2.81,0,5.1,2.28,5.1,5.1S355.6,316.52,352.78,316.52z"/>
</g>
</svg>
