<?xml version="1.0" encoding="utf-8"?>
<!-- Generator: Adobe Illustrator 25.2.3, SVG Export Plug-In . SVG Version: 6.00 Build 0)  -->
<svg version="1.1" id="Capa_1" xmlns="http://www.w3.org/2000/svg" xmlns:xlink="http://www.w3.org/1999/xlink" x="0px" y="0px"
	 viewBox="0 0 512 512" style="enable-background:new 0 0 512 512;" xml:space="preserve">
<style type="text/css">
	.st0{fill:#662D91;}
	.st1{fill:#FFFFFF;}
</style>
<g>
	<g>
		<circle class="st0" cx="256" cy="256" r="256"/>
	</g>
</g>
<g>
	<path class="st1" d="M265.13,62.05c4.5,1.02,9.03,1.94,13.51,3.07c32.04,8.03,58.36,37.97,62.23,70.72
		c4.62,39.1-14.27,73.22-49.84,90.02c-31.69,14.97-72.86,6.88-96.75-18.81c-17.54-18.87-25.66-41.13-23.62-66.71
		c2.92-36.65,29.27-66.95,65.31-75.92c3.62-0.9,7.31-1.58,10.96-2.37C253,62.05,259.06,62.05,265.13,62.05z"/>
	<path class="st1" d="M108.41,399.09c0-56.46,0-113.49,0-170.83c7.99,0,15.91-0.3,23.79,0.06c22.22,1.02,44.18,3.95,65.55,10.35
		c18.12,5.42,35.33,12.75,49.99,25.07c2.79,2.35,5.31,5.02,8.24,7.81c2.79-2.62,5.47-5.4,8.41-7.87
		c16.01-13.4,34.88-20.96,54.72-26.37c27.23-7.42,55.06-9.7,83.18-9.22c0.36,0.01,0.71,0.14,1.29,0.26c0,57.05,0,114.08,0,171.72
		c-1.6,0-3.3,0-5,0c-25.57-0.04-50.91,2.01-75.6,9.12c-16.19,4.66-31.78,10.66-44.77,21.92c-5.78,5.01-10.02,10.94-10.82,18.85
		c-7.7,0-15.12,0-22.51,0c-2.86-15.65-14.74-22.99-27.11-29.58c-18-9.58-37.51-14.76-57.6-17.15
		C143.16,401.19,126,400.44,108.41,399.09z"/>
</g>
</svg>
