<?xml version="1.0" encoding="utf-8"?>
<!-- Generator: Adobe Illustrator 25.2.3, SVG Export Plug-In . SVG Version: 6.00 Build 0)  -->
<svg version="1.1" id="Capa_1" xmlns="http://www.w3.org/2000/svg" xmlns:xlink="http://www.w3.org/1999/xlink" x="0px" y="0px"
	 viewBox="0 0 512 512" style="enable-background:new 0 0 512 512;" xml:space="preserve">
<style type="text/css">
	.st0{fill:#E0EDEE;}
	.st1{fill:#D7C9E6;}
	.st2{fill:none;stroke:#066C6F;stroke-width:2.3068;stroke-miterlimit:10;}
	.st3{fill-rule:evenodd;clip-rule:evenodd;fill:#066C6F;}
	.st4{fill:#066C6F;}
	.st5{fill:#662D91;}
	.st6{fill:#AF93CD;}
</style>
<circle class="st0" cx="255.24" cy="250.58" r="179.84"/>
<path class="st1" d="M268.63,311.03c-34.66-83.85-134.71-122.27-134.71-122.27s-43.88,97.52-9.23,181.38
	c34.66,83.83,134.71,122.27,134.71,122.27S303.27,394.86,268.63,311.03"/>
<path class="st1" d="M391.12,370.13C356.46,453.96,256.41,492.4,256.41,492.4s-43.88-97.54-9.23-181.37
	c34.66-83.85,134.71-122.27,134.71-122.27S425.78,286.28,391.12,370.13"/>
<g>
	<path class="st2" d="M106.96,177.38c0,0,78.15-21.45,121.79-68.76"/>
	<path class="st2" d="M88.59,189.91c0,0,94.95-11.19,168.48-81.28"/>
	<path class="st2" d="M71.06,200.76c0,0,126.86-4.08,218.2-92.14"/>
	<path class="st2" d="M410.06,182.39c0,0-76.82-19.2-123.37-73.77"/>
	<path class="st2" d="M427.59,194.08c0,0-92.68-5.01-169.23-85.46"/>
	<path class="st2" d="M450.97,208.28c0,0-131.93-5.01-224.8-99.65"/>
	<g>
		<polygon class="st3" points="171.3,347.49 70.43,174.51 81.63,168.2 181.69,342.37 		"/>
		<polygon class="st3" points="60.3,202.36 108.31,172.34 111.66,178.93 64.65,208.76 		"/>
		<polygon class="st3" points="66.01,215.75 114.01,185.72 117.36,192.32 70.36,222.15 		"/>
	</g>
	<g>
		<polygon class="st3" points="344.08,351.56 444.95,178.58 433.75,172.26 333.69,346.43 		"/>
		<polygon class="st3" points="455.07,206.43 407.07,176.4 403.72,183 450.72,212.83 		"/>
		<polygon class="st3" points="449.37,219.81 401.36,189.79 398.01,196.38 445.02,226.21 		"/>
	</g>
	<polygon class="st3" points="249.36,335.3 248.66,81.63 264.94,81.82 264.01,336.29 	"/>
	<polygon class="st3" points="219.87,105.72 291.56,103.3 291.05,112.66 220.57,115.5 	"/>
	<polygon class="st3" points="220.15,126.54 291.84,124.12 291.32,133.48 220.85,136.32 	"/>
</g>
<g>
	<g>
		<g>
			<path class="st4" d="M32.54,199.32L0.9,202.65l3.69-10.76l10.62-0.34c3.55-0.01,6.82-0.05,10.53-0.08l0.09-0.26
				c-2.9-2.3-5.4-4.53-8.19-6.73l-8.17-6.79l3.61-10.5L36,189.26l14.91,5.12l-3.45,10.04L32.54,199.32z"/>
			<path class="st4" d="M35.16,171.37c-12.84-7.11-16.08-18.39-10.2-29c5.88-10.62,17.22-13.83,29.99-6.75
				c12.78,7.07,16.38,18.55,10.5,29.17S47.94,178.45,35.16,171.37z M49.68,145.16c-7.62-4.22-13.82-3.5-16.67,1.66
				c-2.82,5.1-0.18,10.8,7.44,15.01c7.56,4.19,14.15,3.6,16.97-1.5C60.28,155.18,57.24,149.34,49.68,145.16z"/>
			<path class="st4" d="M60.28,129.03c-11.36-9.6-11.45-22.77-3.76-31.88c4.2-4.98,9.2-6.86,13.65-7.13l1.3,8.45
				c-2.93,0.39-5.27,1.47-7.71,4.35c-4.24,5.03-3.36,12.06,3.24,17.63c6.81,5.75,13.35,5.98,18.7-0.36c1.02-1.2,1.81-2.78,1.85-4
				l-5.5-4.64l-4.6,5.45l-6.65-5.62l10.7-12.67l15.92,13.44c0.31,4.3-1.39,10.04-5.46,14.86C84,136.32,71.8,138.76,60.28,129.03z"/>
			<path class="st4" d="M83.44,71.12l9.8-8.16l39.25,25.38l-8.64,7.19l-8.58-6.23l-10.16,8.47l4.58,9.57l-8.38,6.98L83.44,71.12z
				 M101.42,90.14l7-5.84l-3.19-2.33c-3.7-2.63-7.98-5.94-11.86-8.77l-0.21,0.18c2.14,4.28,4.62,9.08,6.54,13.2L101.42,90.14z"/>
			<path class="st4" d="M126.25,40l9.93-4.83l19.22,14.44c2.74,2.02,5.59,4.6,8.35,7.15l0.25-0.12c-2.59-4.08-6.12-9.45-8.43-14.2
				L149,28.94l9.07-4.41l19.51,40.14l-9.87,4.8l-19.28-14.41c-2.68-2.05-5.53-4.63-8.29-7.18L139.89,48
				c2.65,4.2,6.09,9.39,8.43,14.2l6.56,13.5l-9.13,4.44L126.25,40z"/>
			<path class="st4" d="M181.5,16.8l12.29-3.38l25.25,39.33l-10.84,2.98l-5.24-9.22l-12.75,3.51l0.22,10.6l-10.51,2.89L181.5,16.8z
				 M190.01,41.54l8.79-2.42l-1.94-3.45c-2.29-3.92-4.81-8.7-7.17-12.88l-0.26,0.07c0.18,4.78,0.45,10.18,0.5,14.72L190.01,41.54z"
				/>
			<path class="st4" d="M248.04,50.75c-9.44-1.83-15.8-9.91-16.1-22.45c-0.35-14.67,7.75-23.16,19.88-23.44
				c12.13-0.29,20.62,7.88,20.97,22.48c0.28,11.86-5.02,19.94-13.52,22.74c2.13,3.04,6.13,4.04,9.83,3.95
				c1.92-0.05,3.63-0.36,4.99-0.8l2.03,7.56c-1.69,0.93-4.49,1.68-8.05,1.77C258.33,62.78,251.49,57.8,248.04,50.75z M261.89,27.58
				c-0.2-8.7-3.96-13.69-9.85-13.55c-5.82,0.14-9.41,5.3-9.2,14c0.22,9.25,4.05,14.51,9.87,14.37
				C258.6,42.27,262.11,36.84,261.89,27.58z"/>
			<path class="st4" d="M282.88,29.82l4.1-23.29l10.46,1.84l-4.3,24.44c-1.47,8.37,0.51,11.71,5.3,12.56
				c4.86,0.86,8.01-1.58,9.48-9.95l4.3-24.44l10.06,1.77l-4.1,23.29c-2.62,14.85-9.65,20.43-21.33,18.38
				C285.17,52.35,280.26,44.67,282.88,29.82z"/>
			<path class="st4" d="M337.73,17.33l26.48,9.82l-3.1,8.35l-16.45-6.1l-2.91,7.84l14.07,5.22l-3.1,8.35l-14.07-5.22l-3.31,8.93
				l17.1,6.34l-3.1,8.35l-27.12-10.06L337.73,17.33z"/>
			<path class="st4" d="M377.95,33.5l13.46,7.81c8.01,4.64,13.11,10.46,8.78,17.93c-1.96,3.38-6.02,6.02-9.85,5.38l-0.14,0.24
				c3.3,3.34,4.67,7.94,1.68,13.1c-4.58,7.89-13.36,7.46-21.72,2.62l-14.59-8.46L377.95,33.5z M373.52,73.09
				c4.51,2.61,7.78,2.29,9.68-0.97c1.89-3.26,0.36-5.81-4.21-8.46l-4.63-2.68l-5.47,9.43L373.52,73.09z M382.14,56.46
				c3.97,2.3,6.69,1.58,8.24-1.09c1.62-2.79,0.43-4.98-3.36-7.18l-3.91-2.27l-4.81,8.3L382.14,56.46z"/>
			<path class="st4" d="M418.35,58.61l12.47,10.63c7.2,6.14,11.12,13.8,4.14,21.99c-4.22,4.96-9.29,6.14-14.2,4.83l-3.91,19.91
				l-9.08-7.74l3.92-17.28l-3.97-3.38l-10.18,11.95l-8.14-6.94L418.35,58.61z M416.9,84.31c3.86,3.29,7.37,3.4,10.13,0.16
				c2.75-3.23,1.56-6.06-2.3-9.35l-3.71-3.16l-7.82,9.18L416.9,84.31z"/>
			<path class="st4" d="M458.75,96.81l8.14,9.82l-25.47,39.21l-7.18-8.65l6.25-8.57l-8.45-10.18l-9.58,4.56l-6.96-8.39L458.75,96.81
				z M439.7,114.76l5.82,7.02l2.34-3.19c2.63-3.7,5.95-7.97,8.8-11.84l-0.18-0.21c-4.29,2.13-9.1,4.61-13.22,6.51L439.7,114.76z"/>
			<path class="st4" d="M481.51,126.22l6.3,11.16c6.71,11.88,5.33,22.97-8.16,30.59c-13.43,7.58-23.99,3.24-30.4-8.11l-6.61-11.7
				L481.51,126.22z M456.11,154.57c3.54,6.27,8.99,9.09,18.18,3.9c9.25-5.22,9.29-11.15,5.75-17.42l-0.74-1.31l-23.94,13.51
				L456.11,154.57z"/>
			<path class="st4" d="M506.89,177.26l4.22,12.03l-37.48,27.9l-3.72-10.6l8.84-5.86l-4.38-12.48l-10.56,0.95l-3.61-10.28
				L506.89,177.26z M482.8,187.45l3.02,8.6l3.3-2.18c3.75-2.55,8.35-5.4,12.36-8.04l-0.09-0.26c-4.76,0.51-10.12,1.16-14.65,1.51
				L482.8,187.45z"/>
		</g>
	</g>
</g>
<path class="st5" d="M422.79,430.6c-61.82,63.46-166.41,62.15-166.41,62.15s-4.35-104.15,57.49-167.59
	C375.7,261.71,480.27,263,480.27,263S484.61,367.15,422.79,430.6"/>
<path class="st6" d="M480.29,263.24c-0.02-0.12-0.02-0.23-0.02-0.23s-104.57-1.29-166.39,62.17
	c-61.84,63.43-57.49,167.59-57.49,167.59h0.23L480.29,263.24"/>
<path class="st5" d="M198.77,325.17C136.96,261.71,32.38,263,32.38,263s-4.34,104.15,57.49,167.6
	c61.82,63.46,166.41,62.15,166.41,62.15S260.6,388.6,198.77,325.17"/>
<path class="st6" d="M256.27,492.54v0.22c0,0-104.59,1.3-166.41-62.15C28.04,367.15,32.38,263,32.38,263h0.23L256.27,492.54"/>
<rect x="75.9" y="355.72" transform="matrix(0.7145 -0.6997 0.6997 0.7145 -233.9245 170.6326)" class="st1" width="32.4" height="32.4"/>
<rect x="124.48" y="308.13" transform="matrix(0.7145 -0.6997 0.6997 0.7145 -186.7579 191.038)" class="st1" width="32.4" height="32.4"/>
<rect x="106.76" y="387.22" transform="matrix(0.7145 -0.6997 0.6997 0.7145 -247.1548 201.219)" class="st1" width="32.4" height="32.4"/>
<rect x="155.33" y="339.65" transform="matrix(0.7145 -0.6997 0.6997 0.7145 -199.9981 221.6231)" class="st1" width="32.4" height="32.4"/>
<rect x="137.62" y="418.73" transform="matrix(0.7145 -0.6997 0.6997 0.7145 -260.388 231.807)" class="st1" width="32.4" height="32.4"/>
<rect x="186.19" y="371.16" transform="matrix(0.7145 -0.6997 0.6997 0.7145 -213.233 252.2082)" class="st1" width="32.4" height="32.4"/>
<rect x="406.78" y="354.92" transform="matrix(0.6962 -0.7178 0.7178 0.6962 -137.9093 416.3619)" class="st1" width="32.4" height="32.4"/>
<rect x="357.98" y="307.59" transform="matrix(0.6962 -0.7178 0.7178 0.6962 -118.7562 366.9567)" class="st1" width="32.4" height="32.4"/>
<rect x="376.07" y="386.58" transform="matrix(0.6962 -0.7178 0.7178 0.6962 -169.9653 403.9373)" class="st1" width="32.4" height="32.4"/>
<rect x="327.28" y="339.24" transform="matrix(0.6962 -0.7178 0.7178 0.6962 -150.8038 354.5301)" class="st1" width="32.4" height="32.4"/>
<rect x="345.37" y="418.23" transform="matrix(0.6962 -0.7178 0.7178 0.6962 -202.0058 391.5135)" class="st1" width="32.4" height="32.4"/>
<rect x="296.58" y="370.9" transform="matrix(0.6962 -0.7178 0.7178 0.6962 -182.8526 342.1084)" class="st1" width="32.4" height="32.4"/>
<path class="st5" d="M332.31,332.62c0,103.82-75.92,160.13-75.92,160.13s-75.92-71.68-75.92-160.13s75.92-160.15,75.92-160.15
	S332.31,244.18,332.31,332.62"/>
<path class="st6" d="M256.55,172.63l-0.16-0.16c0,0-75.92,71.7-75.92,160.15c0,107.77,75.92,160.13,75.92,160.13
	s0.08-0.08,0.16-0.14V172.63"/>
<rect x="206.53" y="274.46" class="st1" width="32.4" height="32.4"/>
<rect x="274.52" y="274.46" class="st1" width="32.4" height="32.4"/>
<rect x="206.53" y="318.56" class="st1" width="32.4" height="32.4"/>
<rect x="274.52" y="318.56" class="st1" width="32.4" height="32.4"/>
<rect x="206.53" y="362.66" class="st1" width="32.4" height="32.4"/>
<rect x="274.52" y="362.66" class="st1" width="32.4" height="32.4"/>
</svg>
