<?xml version="1.0" encoding="utf-8"?>
<!-- Generator: Adobe Illustrator 25.3.1, SVG Export Plug-In . SVG Version: 6.00 Build 0)  -->
<svg version="1.1" id="Capa_1" xmlns="http://www.w3.org/2000/svg" xmlns:xlink="http://www.w3.org/1999/xlink" x="0px" y="0px"
	 viewBox="0 0 512 512" style="enable-background:new 0 0 512 512;" xml:space="preserve">
<style type="text/css">
	.st0{fill:#E0EDEE;}
	.st1{fill:#D7C9E6;}
	.st2{fill:#662D91;}
	.st3{fill:#AF93CD;}
	.st4{fill:none;stroke:#066C6F;stroke-width:2.3068;stroke-miterlimit:10;}
	.st5{fill-rule:evenodd;clip-rule:evenodd;fill:#066C6F;}
</style>
<circle class="st0" cx="255.2" cy="250.6" r="179.8"/>
<path class="st1" d="M268.6,311C234,227.2,133.9,188.8,133.9,188.8s-43.9,97.5-9.2,181.4c34.7,83.8,134.7,122.3,134.7,122.3
	S303.3,394.9,268.6,311"/>
<path class="st1" d="M391.1,370.1C356.5,454,256.4,492.4,256.4,492.4s-43.9-97.5-9.2-181.4s134.7-122.3,134.7-122.3
	S425.8,286.3,391.1,370.1"/>
<path class="st2" d="M422.8,430.6c-61.8,63.5-166.4,62.1-166.4,62.1s-4.4-104.1,57.5-167.6c61.8-63.5,166.4-62.2,166.4-62.2
	S484.6,367.2,422.8,430.6"/>
<path class="st3" d="M480.3,263.2c0-0.1,0-0.2,0-0.2s-104.6-1.3-166.4,62.2c-61.8,63.4-57.5,167.6-57.5,167.6h0.2L480.3,263.2"/>
<path class="st2" d="M198.8,325.2C137,261.7,32.4,263,32.4,263S28,367.2,89.9,430.6c61.8,63.5,166.4,62.1,166.4,62.1
	S260.6,388.6,198.8,325.2"/>
<path class="st3" d="M256.3,492.5v0.2c0,0-104.6,1.3-166.4-62.1C28,367.2,32.4,263,32.4,263h0.2L256.3,492.5"/>
<rect x="75.9" y="355.7" transform="matrix(0.7145 -0.6997 0.6997 0.7145 -233.9276 170.6361)" class="st1" width="32.4" height="32.4"/>
<rect x="124.5" y="308.1" transform="matrix(0.7145 -0.6997 0.6997 0.7145 -186.7399 191.0347)" class="st1" width="32.4" height="32.4"/>
<rect x="106.8" y="387.2" transform="matrix(0.7145 -0.6997 0.6997 0.7145 -247.1274 201.2353)" class="st1" width="32.4" height="32.4"/>
<rect x="155.4" y="339.7" transform="matrix(0.7145 -0.6997 0.6997 0.7145 -200.0458 221.6638)" class="st1" width="32.4" height="32.4"/>
<rect x="137.6" y="418.7" transform="matrix(0.7145 -0.6997 0.6997 0.7145 -260.4017 231.8025)" class="st1" width="32.4" height="32.4"/>
<rect x="186.2" y="371.2" transform="matrix(0.7145 -0.6997 0.6997 0.7145 -213.2489 252.2616)" class="st1" width="32.4" height="32.4"/>
<rect x="406.8" y="354.9" transform="matrix(0.6962 -0.7178 0.7178 0.6962 -137.8862 416.3313)" class="st1" width="32.4" height="32.4"/>
<rect x="358" y="307.6" transform="matrix(0.6962 -0.7178 0.7178 0.6962 -118.7467 366.9485)" class="st1" width="32.4" height="32.4"/>
<rect x="376" y="386.6" transform="matrix(0.6962 -0.7178 0.7178 0.6962 -170.0171 403.9071)" class="st1" width="32.4" height="32.4"/>
<rect x="327.2" y="339.2" transform="matrix(0.6962 -0.7178 0.7178 0.6962 -150.7732 354.4901)" class="st1" width="32.4" height="32.4"/>
<rect x="345.3" y="418.2" transform="matrix(0.6962 -0.7178 0.7178 0.6962 -201.9751 391.4788)" class="st1" width="32.4" height="32.4"/>
<rect x="296.6" y="370.9" transform="matrix(0.6962 -0.7178 0.7178 0.6962 -182.8355 342.102)" class="st1" width="32.4" height="32.4"/>
<path class="st2" d="M332.3,332.6c0,103.8-75.9,160.1-75.9,160.1s-75.9-71.7-75.9-160.1s75.9-160.2,75.9-160.2
	S332.3,244.2,332.3,332.6"/>
<path class="st3" d="M256.5,172.6l-0.2-0.2c0,0-75.9,71.7-75.9,160.2c0,107.8,75.9,160.1,75.9,160.1s0.1-0.1,0.2-0.1V172.6"/>
<rect x="206.5" y="274.5" class="st1" width="32.4" height="32.4"/>
<rect x="274.5" y="274.5" class="st1" width="32.4" height="32.4"/>
<rect x="206.5" y="318.6" class="st1" width="32.4" height="32.4"/>
<rect x="274.5" y="318.6" class="st1" width="32.4" height="32.4"/>
<rect x="206.5" y="362.7" class="st1" width="32.4" height="32.4"/>
<rect x="274.5" y="362.7" class="st1" width="32.4" height="32.4"/>
<circle class="st0" cx="255.2" cy="250.6" r="179.8"/>
<path class="st1" d="M268.6,311C234,227.2,133.9,188.8,133.9,188.8s-43.9,97.5-9.2,181.4c34.7,83.8,134.7,122.3,134.7,122.3
	S303.3,394.9,268.6,311"/>
<path class="st1" d="M391.1,370.1C356.5,454,256.4,492.4,256.4,492.4s-43.9-97.5-9.2-181.4c34.7-83.9,134.7-122.3,134.7-122.3
	S425.8,286.3,391.1,370.1"/>
<g>
	<path class="st4" d="M107,177.4c0,0,78.2-21.4,121.8-68.8"/>
	<path class="st4" d="M88.6,189.9c0,0,94.9-11.2,168.5-81.3"/>
	<path class="st4" d="M71.1,200.8c0,0,126.9-4.1,218.2-92.1"/>
	<path class="st4" d="M410.1,182.4c0,0-76.8-19.2-123.4-73.8"/>
	<path class="st4" d="M427.6,194.1c0,0-92.7-5-169.2-85.5"/>
	<path class="st4" d="M451,208.3c0,0-131.9-5-224.8-99.7"/>
	<g>
		<polygon class="st5" points="171.3,347.5 70.4,174.5 81.6,168.2 181.7,342.4 		"/>
		<polygon class="st5" points="60.3,202.4 108.3,172.3 111.7,178.9 64.7,208.8 		"/>
		<polygon class="st5" points="66,215.8 114,185.7 117.4,192.3 70.4,222.2 		"/>
	</g>
	<g>
		<polygon class="st5" points="344.1,351.6 445,178.6 433.8,172.3 333.7,346.4 		"/>
		<polygon class="st5" points="455.1,206.4 407.1,176.4 403.7,183 450.7,212.8 		"/>
		<polygon class="st5" points="449.4,219.8 401.4,189.8 398,196.4 445,226.2 		"/>
	</g>
	<polygon class="st5" points="249.4,335.3 248.7,81.6 264.9,81.8 264,336.3 	"/>
	<polygon class="st5" points="219.9,105.7 291.6,103.3 291,112.7 220.6,115.5 	"/>
	<polygon class="st5" points="220.1,126.5 291.8,124.1 291.3,133.5 220.9,136.3 	"/>
</g>
<g>
	<g>
		<g>
			<path class="st0" d="M32.5,199.3l-31.6,3.3l3.7-10.8l10.6-0.3c3.6,0,6.8-0.1,10.5-0.1l0.1-0.3c-2.9-2.3-5.4-4.5-8.2-6.7l-8.2-6.8
				l3.6-10.5L36,189.3l14.9,5.1l-3.5,10L32.5,199.3z"/>
			<path class="st0" d="M35.2,171.4c-12.8-7.1-16.1-18.4-10.2-29c5.9-10.6,17.2-13.8,30-6.8c12.8,7.1,16.4,18.6,10.5,29.2
				S47.9,178.5,35.2,171.4z M49.7,145.2c-7.6-4.2-13.8-3.5-16.7,1.7c-2.8,5.1-0.2,10.8,7.4,15c7.6,4.2,14.1,3.6,17-1.5
				C60.3,155.2,57.2,149.3,49.7,145.2z"/>
			<path class="st0" d="M60.3,129c-11.4-9.6-11.5-22.8-3.8-31.9c4.2-5,9.2-6.9,13.6-7.1l1.3,8.4c-2.9,0.4-5.3,1.5-7.7,4.3
				c-4.2,5-3.4,12.1,3.2,17.6c6.8,5.8,13.3,6,18.7-0.4c1-1.2,1.8-2.8,1.8-4l-5.5-4.6l-4.6,5.4l-6.7-5.6l10.7-12.7l15.9,13.4
				c0.3,4.3-1.4,10-5.5,14.9C84,136.3,71.8,138.8,60.3,129z"/>
			<path class="st0" d="M83.4,71.1l9.8-8.2l39.2,25.4l-8.6,7.2l-8.6-6.2l-10.2,8.5l4.6,9.6l-8.4,7L83.4,71.1z M101.4,90.1l7-5.8
				l-3.2-2.3c-3.7-2.6-8-5.9-11.9-8.8l-0.2,0.2c2.1,4.3,4.6,9.1,6.5,13.2L101.4,90.1z"/>
			<path class="st0" d="M126.2,40l9.9-4.8l19.2,14.4c2.7,2,5.6,4.6,8.4,7.2l0.2-0.1c-2.6-4.1-6.1-9.5-8.4-14.2L149,28.9l9.1-4.4
				l19.5,40.1l-9.9,4.8l-19.3-14.4c-2.7-2-5.5-4.6-8.3-7.2l-0.3,0.1c2.6,4.2,6.1,9.4,8.4,14.2l6.6,13.5l-9.1,4.4L126.2,40z"/>
			<path class="st0" d="M181.5,16.8l12.3-3.4L219,52.8l-10.8,3l-5.2-9.2L190.2,50l0.2,10.6l-10.5,2.9L181.5,16.8z M190,41.5l8.8-2.4
				l-1.9-3.5c-2.3-3.9-4.8-8.7-7.2-12.9l-0.3,0.1c0.2,4.8,0.4,10.2,0.5,14.7L190,41.5z"/>
			<path class="st0" d="M248,50.8c-9.4-1.8-15.8-9.9-16.1-22.4c-0.4-14.7,7.8-23.2,19.9-23.4c12.1-0.3,20.6,7.9,21,22.5
				c0.3,11.9-5,19.9-13.5,22.7c2.1,3,6.1,4,9.8,4c1.9,0,3.6-0.4,5-0.8l2,7.6c-1.7,0.9-4.5,1.7-8,1.8C258.3,62.8,251.5,57.8,248,50.8
				z M261.9,27.6c-0.2-8.7-4-13.7-9.9-13.6c-5.8,0.1-9.4,5.3-9.2,14c0.2,9.2,4.1,14.5,9.9,14.4C258.6,42.3,262.1,36.8,261.9,27.6z"
				/>
			<path class="st0" d="M282.9,29.8L287,6.5l10.5,1.8l-4.3,24.4c-1.5,8.4,0.5,11.7,5.3,12.6c4.9,0.9,8-1.6,9.5-10l4.3-24.4l10.1,1.8
				L318.2,36c-2.6,14.8-9.6,20.4-21.3,18.4C285.2,52.4,280.3,44.7,282.9,29.8z"/>
			<path class="st0" d="M337.7,17.3l26.5,9.8l-3.1,8.3l-16.5-6.1l-2.9,7.8l14.1,5.2l-3.1,8.3l-14.1-5.2l-3.3,8.9l17.1,6.3l-3.1,8.4
				l-27.1-10.1L337.7,17.3z"/>
			<path class="st0" d="M378,33.5l13.5,7.8c8,4.6,13.1,10.5,8.8,17.9c-2,3.4-6,6-9.9,5.4l-0.1,0.2c3.3,3.3,4.7,7.9,1.7,13.1
				c-4.6,7.9-13.4,7.5-21.7,2.6l-14.6-8.5L378,33.5z M373.5,73.1c4.5,2.6,7.8,2.3,9.7-1c1.9-3.3,0.4-5.8-4.2-8.5l-4.6-2.7l-5.5,9.4
				L373.5,73.1z M382.1,56.5c4,2.3,6.7,1.6,8.2-1.1c1.6-2.8,0.4-5-3.4-7.2l-3.9-2.3l-4.8,8.3L382.1,56.5z"/>
			<path class="st0" d="M418.4,58.6l12.5,10.6c7.2,6.1,11.1,13.8,4.1,22c-4.2,5-9.3,6.1-14.2,4.8l-3.9,19.9l-9.1-7.7l3.9-17.3
				l-4-3.4l-10.2,11.9l-8.1-6.9L418.4,58.6z M416.9,84.3c3.9,3.3,7.4,3.4,10.1,0.2c2.8-3.2,1.6-6.1-2.3-9.3L421,72l-7.8,9.2
				L416.9,84.3z"/>
			<path class="st0" d="M458.8,96.8l8.1,9.8l-25.5,39.2l-7.2-8.6l6.2-8.6l-8.5-10.2l-9.6,4.6l-7-8.4L458.8,96.8z M439.7,114.8l5.8,7
				l2.3-3.2c2.6-3.7,6-8,8.8-11.8l-0.2-0.2c-4.3,2.1-9.1,4.6-13.2,6.5L439.7,114.8z"/>
			<path class="st0" d="M481.5,126.2l6.3,11.2c6.7,11.9,5.3,23-8.2,30.6c-13.4,7.6-24,3.2-30.4-8.1l-6.6-11.7L481.5,126.2z
				 M456.1,154.6c3.5,6.3,9,9.1,18.2,3.9c9.2-5.2,9.3-11.1,5.8-17.4l-0.7-1.3l-23.9,13.5L456.1,154.6z"/>
			<path class="st0" d="M506.9,177.3l4.2,12l-37.5,27.9l-3.7-10.6l8.8-5.9l-4.4-12.5l-10.6,0.9l-3.6-10.3L506.9,177.3z M482.8,187.5
				l3,8.6l3.3-2.2c3.8-2.6,8.4-5.4,12.4-8l-0.1-0.3c-4.8,0.5-10.1,1.2-14.6,1.5L482.8,187.5z"/>
		</g>
	</g>
</g>
<path class="st2" d="M422.8,430.6c-61.8,63.5-166.4,62.1-166.4,62.1s-4.4-104.1,57.5-167.6c61.8-63.5,166.4-62.2,166.4-62.2
	S484.6,367.2,422.8,430.6"/>
<path class="st3" d="M480.3,263.2c0-0.1,0-0.2,0-0.2s-104.6-1.3-166.4,62.2c-61.8,63.4-57.5,167.6-57.5,167.6h0.2L480.3,263.2"/>
<path class="st2" d="M198.8,325.2C137,261.7,32.4,263,32.4,263S28,367.2,89.9,430.6c61.8,63.5,166.4,62.1,166.4,62.1
	S260.6,388.6,198.8,325.2"/>
<path class="st3" d="M256.3,492.5v0.2c0,0-104.6,1.3-166.4-62.1C28,367.2,32.4,263,32.4,263h0.2L256.3,492.5"/>
<rect x="75.9" y="355.7" transform="matrix(0.7145 -0.6997 0.6997 0.7145 -233.9243 170.646)" class="st1" width="32.4" height="32.4"/>
<rect x="124.5" y="308.1" transform="matrix(0.7145 -0.6997 0.6997 0.7145 -186.757 191.0465)" class="st1" width="32.4" height="32.4"/>
<rect x="106.8" y="387.2" transform="matrix(0.7145 -0.6997 0.6997 0.7145 -247.1527 201.2319)" class="st1" width="32.4" height="32.4"/>
<rect x="155.3" y="339.7" transform="matrix(0.7145 -0.6997 0.6997 0.7145 -200.0003 221.636)" class="st1" width="32.4" height="32.4"/>
<rect x="137.6" y="418.7" transform="matrix(0.7145 -0.6997 0.6997 0.7145 -260.386 231.8233)" class="st1" width="32.4" height="32.4"/>
<rect x="186.2" y="371.2" transform="matrix(0.7145 -0.6997 0.6997 0.7145 -213.2321 252.2253)" class="st1" width="32.4" height="32.4"/>
<rect x="406.8" y="354.9" transform="matrix(0.6962 -0.7178 0.7178 0.6962 -137.9146 416.3482)" class="st1" width="32.4" height="32.4"/>
<rect x="358" y="307.6" transform="matrix(0.6962 -0.7178 0.7178 0.6962 -118.7643 366.945)" class="st1" width="32.4" height="32.4"/>
<rect x="376" y="386.6" transform="matrix(0.6962 -0.7178 0.7178 0.6962 -169.9706 403.921)" class="st1" width="32.4" height="32.4"/>
<rect x="327.3" y="339.2" transform="matrix(0.6962 -0.7178 0.7178 0.6962 -150.8063 354.5188)" class="st1" width="32.4" height="32.4"/>
<rect x="345.4" y="418.2" transform="matrix(0.6962 -0.7178 0.7178 0.6962 -202.0125 391.5008)" class="st1" width="32.4" height="32.4"/>
<rect x="296.6" y="370.9" transform="matrix(0.6962 -0.7178 0.7178 0.6962 -182.855 342.1005)" class="st1" width="32.4" height="32.4"/>
<path class="st2" d="M332.3,332.6c0,103.8-75.9,160.1-75.9,160.1s-75.9-71.7-75.9-160.1s75.9-160.2,75.9-160.2
	S332.3,244.2,332.3,332.6"/>
<path class="st3" d="M256.5,172.6l-0.2-0.2c0,0-75.9,71.7-75.9,160.2c0,107.8,75.9,160.1,75.9,160.1s0.1-0.1,0.2-0.1V172.6"/>
<rect x="206.5" y="274.5" class="st1" width="32.4" height="32.4"/>
<rect x="274.5" y="274.5" class="st1" width="32.4" height="32.4"/>
<rect x="206.5" y="318.6" class="st1" width="32.4" height="32.4"/>
<rect x="274.5" y="318.6" class="st1" width="32.4" height="32.4"/>
<rect x="206.5" y="362.7" class="st1" width="32.4" height="32.4"/>
<rect x="274.5" y="362.7" class="st1" width="32.4" height="32.4"/>
</svg>
