<svg id="Capa_1" enable-background="new 0 0 512 512" height="512" viewBox="0 0 512 512" width="512" xmlns="http://www.w3.org/2000/svg" xmlns:xlink="http://www.w3.org/1999/xlink"><linearGradient id="SVGID_1_" gradientUnits="userSpaceOnUse" x1="74.981" x2="437.019" y1="74.981" y2="437.019"><stop offset="0" stop-color="#c8a6ff"/><stop offset="1" stop-color="#c680ff"/></linearGradient><linearGradient id="SVGID_2_" gradientUnits="userSpaceOnUse" x1="141.683" x2="323.572" y1="316.938" y2="316.938"><stop offset="0" stop-color="#83878c"/><stop offset="1" stop-color="#62676f"/></linearGradient><linearGradient id="SVGID_3_" gradientUnits="userSpaceOnUse" x1="224.659" x2="287.345" y1="169.459" y2="169.459"><stop offset="0" stop-color="#ffebe3"/><stop offset="1" stop-color="#ffd4c4"/></linearGradient><linearGradient id="SVGID_4_" gradientUnits="userSpaceOnUse" x1="171.283" x2="417.686" y1="374.407" y2="374.407"><stop offset="0" stop-color="#c2c4c6"/><stop offset="1" stop-color="#a4a6aa"/></linearGradient><g><circle cx="256" cy="256" fill="url(#SVGID_1_)" r="256"/><g><path d="m336.527 264.199h-80.527v105.475l80.527-37.895c18.662 0 33.79-15.134 33.79-33.793 0-18.66-15.128-33.787-33.79-33.787z" fill="#414851"/><path d="m256 356.058 67.572-24.279c-.006-37.318-30.256-67.576-67.572-67.576l-.001.002c-.008-.004-80.526-.004-80.526-.004-18.662 0-33.79 15.127-33.79 33.786 0 18.66 15.128 33.794 33.79 33.794l80.527 37.895s0-5.347 0-13.618z" fill="url(#SVGID_2_)"/><path d="m198.255 105.101c-22.719 54.56 3.187 117.431 57.747 140.15 22.719-54.56-3.186-117.431-57.747-140.15z" fill="#ffbea4"/><path d="m148.818 138.067c0 59.101 48.082 107.184 107.184 107.184 0-59.101-48.082-107.184-107.184-107.184z" fill="#ffd4c4"/><path d="m313.75 105.101c22.719 54.56-3.187 117.431-57.747 140.15-22.719-54.56 3.186-117.431 57.747-140.15z" fill="#ff9d7d"/><path d="m363.186 138.067c0 59.101-48.082 107.184-107.184 107.184.001-59.101 48.083-107.184 107.184-107.184z" fill="#ffbea4"/><path d="m256.002 93.67s-.002.008-.003.009v-.007c-41.787 41.79-41.787 109.785 0 151.575 41.794-41.787 41.794-109.786.003-151.577z" fill="url(#SVGID_3_)"/><path d="m136.946 331.779h119.054l-84.717 85.257-34.337.007c-23.547 0-42.632-19.085-42.632-42.632s19.085-42.632 42.632-42.632z" fill="#a4a6aa"/><path d="m417.686 374.411c0-23.547-19.085-42.632-42.632-42.632h-119.054c-46.838.291-84.717 38.34-84.717 85.257h84.717z" fill="url(#SVGID_4_)"/><path d="m298.632 374.404 119.054.007c0 23.547-19.085 42.632-42.632 42.632h-108.396l-10.658-.007c0-23.547 19.085-42.632 42.632-42.632z" fill="#83878c"/></g></g></svg>